<?xml version="1.0" standalone="no"?>
<!DOCTYPE svg PUBLIC "-//W3C//DTD SVG 20010904//EN"
 "http://www.w3.org/TR/2001/REC-SVG-20010904/DTD/svg10.dtd">
<svg version="1.0" xmlns="http://www.w3.org/2000/svg"
 width="461.000000pt" height="403.000000pt" viewBox="0 0 461.000000 403.000000"
 preserveAspectRatio="xMidYMid meet">

<g transform="translate(0.000000,403.000000) scale(0.100000,-0.100000)"
fill="#000000" stroke="none">
<path d="M85 3881 c-11 -5 -29 -19 -40 -31 -20 -22 -20 -38 -23 -1371 l-2
-1349 2275 0 2275 0 -2 1350 -3 1350 -28 27 -27 28 -2203 2 c-1211 1 -2211 -2
-2222 -6z m2275 -81 c0 -13 -7 -20 -20 -20 -13 0 -20 7 -20 20 0 13 7 20 20
20 13 0 20 -7 20 -20z m2070 -1290 l0 -1200 -2135 0 -2135 0 0 1200 0 1200
2135 0 2135 0 0 -1200z"/>
</g>
</svg>
